<svg width="50" height="50" viewBox="0 0 50 50" fill="none" xmlns="http://www.w3.org/2000/svg">
<g filter="url(#filter0_i_137_709)">
<path d="M11.1807 16.0955H18.7913C19.0734 16.0953 19.3514 16.0282 19.6026 15.8997C19.8538 15.7711 20.0711 15.5848 20.2366 15.356L25.2032 8.48911" stroke="#D2C2D4" stroke-width="1.4"/>
<path d="M11.1807 16.0955H18.7913C19.0734 16.0953 19.3514 16.0282 19.6026 15.8997C19.8538 15.7711 20.0711 15.5848 20.2366 15.356L25.2032 8.48911" stroke="url(#paint0_radial_137_709)" stroke-width="1.4"/>
</g>
<path d="M11.1807 16.0955H18.7913C19.0734 16.0953 19.3514 16.0282 19.6026 15.8997C19.8538 15.7711 20.0711 15.5848 20.2366 15.356L25.2032 8.48911" stroke="url(#paint1_radial_137_709)" stroke-width="1.4"/>
<g filter="url(#filter1_i_137_709)">
<path d="M38.8491 16.0955H31.2384C30.956 16.0956 30.6777 16.0286 30.4261 15.9001C30.1746 15.7715 29.957 15.5851 29.7913 15.356L24.8247 8.48911" stroke="#D2C2D4" stroke-width="1.4"/>
<path d="M38.8491 16.0955H31.2384C30.956 16.0956 30.6777 16.0286 30.4261 15.9001C30.1746 15.7715 29.957 15.5851 29.7913 15.356L24.8247 8.48911" stroke="url(#paint2_radial_137_709)" stroke-width="1.4"/>
</g>
<path d="M10.7664 18.1886V33.8526" stroke="url(#paint3_linear_137_709)"/>
<path d="M20.476 33.0056L11.1807 18.1886" stroke="url(#paint4_linear_137_709)"/>
<path d="M20.476 33.0056L11.1807 18.1886" stroke="url(#paint5_linear_137_709)"/>
<path d="M39.2134 18.1886V33.8526" stroke="url(#paint6_linear_137_709)"/>
<path d="M29.6055 33.0056L38.9026 18.1886" stroke="url(#paint7_linear_137_709)"/>
<g filter="url(#filter2_f_137_709)">
<path d="M29.6055 33.0056L38.9026 18.1886" stroke="#F8DDE7" stroke-width="0.25"/>
</g>
<path d="M48.9251 33.0056L39.6279 18.1886" stroke="url(#paint8_linear_137_709)"/>
<path d="M48.9251 33.0056L39.6279 18.1886" stroke="url(#paint9_linear_137_709)"/>
<path d="M39.2651 18.9658C40.8704 18.9658 42.1718 17.6615 42.1718 16.0525C42.1718 14.4436 40.8704 13.1393 39.2651 13.1393C37.6598 13.1393 36.3584 14.4436 36.3584 16.0525C36.3584 17.6615 37.6598 18.9658 39.2651 18.9658Z" fill="url(#paint10_radial_137_709)"/>
<path d="M39.2651 18.9658C40.8704 18.9658 42.1718 17.6615 42.1718 16.0525C42.1718 14.4436 40.8704 13.1393 39.2651 13.1393C37.6598 13.1393 36.3584 14.4436 36.3584 16.0525C36.3584 17.6615 37.6598 18.9658 39.2651 18.9658Z" fill="url(#paint11_radial_137_709)"/>
<path d="M39.2651 18.9658C40.8704 18.9658 42.1718 17.6615 42.1718 16.0525C42.1718 14.4436 40.8704 13.1393 39.2651 13.1393C37.6598 13.1393 36.3584 14.4436 36.3584 16.0525C36.3584 17.6615 37.6598 18.9658 39.2651 18.9658Z" fill="url(#paint12_radial_137_709)"/>
<path d="M29.6356 32.1569C28.8959 32.1569 28.3421 32.8445 28.5904 33.5446C29.3738 35.7541 30.8205 37.6664 32.7319 39.0187C34.6432 40.371 36.9254 41.097 39.265 41.097C41.6046 41.097 43.8869 40.371 45.7982 39.0187C47.7096 37.6664 49.1563 35.7541 49.9396 33.5446C50.188 32.8463 49.6341 32.1569 48.8945 32.1569H29.6356Z" fill="url(#paint13_radial_137_709)"/>
<path d="M29.6356 32.1569C28.8959 32.1569 28.3421 32.8445 28.5904 33.5446C29.3738 35.7541 30.8205 37.6664 32.7319 39.0187C34.6432 40.371 36.9254 41.097 39.265 41.097C41.6046 41.097 43.8869 40.371 45.7982 39.0187C47.7096 37.6664 49.1563 35.7541 49.9396 33.5446C50.188 32.8463 49.6341 32.1569 48.8945 32.1569H29.6356Z" fill="url(#paint14_linear_137_709)"/>
<path d="M29.6356 32.1569C28.8959 32.1569 28.3421 32.8445 28.5904 33.5446C29.3738 35.7541 30.8205 37.6664 32.7319 39.0187C34.6432 40.371 36.9254 41.097 39.265 41.097C41.6046 41.097 43.8869 40.371 45.7982 39.0187C47.7096 37.6664 49.1563 35.7541 49.9396 33.5446C50.188 32.8463 49.6341 32.1569 48.8945 32.1569H29.6356Z" fill="url(#paint15_radial_137_709)"/>
<path d="M29.6356 32.1569C28.8959 32.1569 28.3421 32.8445 28.5904 33.5446C29.3738 35.7541 30.8205 37.6664 32.7319 39.0187C34.6432 40.371 36.9254 41.097 39.265 41.097C41.6046 41.097 43.8869 40.371 45.7982 39.0187C47.7096 37.6664 49.1563 35.7541 49.9396 33.5446C50.188 32.8463 49.6341 32.1569 48.8945 32.1569H29.6356Z" fill="url(#paint16_radial_137_709)"/>
<path d="M29.6356 32.1569C28.8959 32.1569 28.3421 32.8445 28.5904 33.5446C29.3738 35.7541 30.8205 37.6664 32.7319 39.0187C34.6432 40.371 36.9254 41.097 39.265 41.097C41.6046 41.097 43.8869 40.371 45.7982 39.0187C47.7096 37.6664 49.1563 35.7541 49.9396 33.5446C50.188 32.8463 49.6341 32.1569 48.8945 32.1569H29.6356Z" fill="url(#paint17_radial_137_709)"/>
<path d="M29.6356 32.1569C28.8959 32.1569 28.3421 32.8445 28.5904 33.5446C29.3738 35.7541 30.8205 37.6664 32.7319 39.0187C34.6432 40.371 36.9254 41.097 39.265 41.097C41.6046 41.097 43.8869 40.371 45.7982 39.0187C47.7096 37.6664 49.1563 35.7541 49.9396 33.5446C50.188 32.8463 49.6341 32.1569 48.8945 32.1569H29.6356Z" fill="url(#paint18_radial_137_709)"/>
<path d="M1.1582 33.0056L10.4554 18.1886" stroke="url(#paint19_linear_137_709)"/>
<g filter="url(#filter3_f_137_709)">
<path d="M1.43872 33.0056L10.7341 18.1886" stroke="#F8DDE7" stroke-width="0.25"/>
</g>
<path d="M1.10647 32.1569C0.36505 32.1569 -0.186992 32.8445 0.0595512 33.5446C0.842909 35.7541 2.28962 37.6664 4.20097 39.0187C6.11232 40.371 8.39454 41.097 10.7341 41.097C13.0738 41.097 15.356 40.371 17.2673 39.0187C19.1787 37.6664 20.6254 35.7541 21.4087 33.5446C21.6571 32.8463 21.105 32.1569 20.3636 32.1569H1.10647Z" fill="url(#paint20_radial_137_709)"/>
<path d="M1.10647 32.1569C0.36505 32.1569 -0.186992 32.8445 0.0595512 33.5446C0.842909 35.7541 2.28962 37.6664 4.20097 39.0187C6.11232 40.371 8.39454 41.097 10.7341 41.097C13.0738 41.097 15.356 40.371 17.2673 39.0187C19.1787 37.6664 20.6254 35.7541 21.4087 33.5446C21.6571 32.8463 21.105 32.1569 20.3636 32.1569H1.10647Z" fill="url(#paint21_linear_137_709)"/>
<path d="M1.10647 32.1569C0.36505 32.1569 -0.186992 32.8445 0.0595512 33.5446C0.842909 35.7541 2.28962 37.6664 4.20097 39.0187C6.11232 40.371 8.39454 41.097 10.7341 41.097C13.0738 41.097 15.356 40.371 17.2673 39.0187C19.1787 37.6664 20.6254 35.7541 21.4087 33.5446C21.6571 32.8463 21.105 32.1569 20.3636 32.1569H1.10647Z" fill="url(#paint22_radial_137_709)"/>
<path d="M1.10647 32.1569C0.36505 32.1569 -0.186992 32.8445 0.0595512 33.5446C0.842909 35.7541 2.28962 37.6664 4.20097 39.0187C6.11232 40.371 8.39454 41.097 10.7341 41.097C13.0738 41.097 15.356 40.371 17.2673 39.0187C19.1787 37.6664 20.6254 35.7541 21.4087 33.5446C21.6571 32.8463 21.105 32.1569 20.3636 32.1569H1.10647Z" fill="url(#paint23_radial_137_709)"/>
<path d="M1.10647 32.1569C0.36505 32.1569 -0.186992 32.8445 0.0595512 33.5446C0.842909 35.7541 2.28962 37.6664 4.20097 39.0187C6.11232 40.371 8.39454 41.097 10.7341 41.097C13.0738 41.097 15.356 40.371 17.2673 39.0187C19.1787 37.6664 20.6254 35.7541 21.4087 33.5446C21.6571 32.8463 21.105 32.1569 20.3636 32.1569H1.10647Z" fill="url(#paint24_radial_137_709)"/>
<path d="M1.10647 32.1569C0.36505 32.1569 -0.186992 32.8445 0.0595512 33.5446C0.842909 35.7541 2.28962 37.6664 4.20097 39.0187C6.11232 40.371 8.39454 41.097 10.7341 41.097C13.0738 41.097 15.356 40.371 17.2673 39.0187C19.1787 37.6664 20.6254 35.7541 21.4087 33.5446C21.6571 32.8463 21.105 32.1569 20.3636 32.1569H1.10647Z" fill="url(#paint25_radial_137_709)"/>
<path d="M10.7343 18.9658C12.3397 18.9658 13.641 17.6615 13.641 16.0525C13.641 14.4436 12.3397 13.1393 10.7343 13.1393C9.12901 13.1393 7.82764 14.4436 7.82764 16.0525C7.82764 17.6615 9.12901 18.9658 10.7343 18.9658Z" fill="url(#paint26_radial_137_709)"/>
<path d="M10.7343 18.9658C12.3397 18.9658 13.641 17.6615 13.641 16.0525C13.641 14.4436 12.3397 13.1393 10.7343 13.1393C9.12901 13.1393 7.82764 14.4436 7.82764 16.0525C7.82764 17.6615 9.12901 18.9658 10.7343 18.9658Z" fill="url(#paint27_radial_137_709)"/>
<path d="M10.7343 18.9658C12.3397 18.9658 13.641 17.6615 13.641 16.0525C13.641 14.4436 12.3397 13.1393 10.7343 13.1393C9.12901 13.1393 7.82764 14.4436 7.82764 16.0525C7.82764 17.6615 9.12901 18.9658 10.7343 18.9658Z" fill="url(#paint28_radial_137_709)"/>
<g filter="url(#filter4_f_137_709)">
<path d="M25.8145 8.79889L30.756 15.6263" stroke="url(#paint29_linear_137_709)" stroke-width="0.4" stroke-linecap="round"/>
</g>
<path d="M24.9995 4.18459V44.0857" stroke="url(#paint30_linear_137_709)" stroke-width="1.5"/>
<path d="M24.9995 4.18459V44.0857" stroke="url(#paint31_radial_137_709)" stroke-width="1.5"/>
<path d="M24.9995 4.18459V44.0857" stroke="url(#paint32_linear_137_709)" stroke-width="1.5"/>
<path d="M24.9995 4.18459V44.0857" stroke="url(#paint33_linear_137_709)" stroke-width="1.5"/>
<path d="M24.9995 4.18459V44.0857" stroke="url(#paint34_radial_137_709)" stroke-width="1.5"/>
<path d="M37.8448 50C38.9881 50 39.5723 48.6804 38.7112 47.9229C34.9255 44.5745 30.0486 42.7295 24.9995 42.7356C19.9503 42.7283 15.0728 44.572 11.286 47.9194C10.4285 48.6786 11.0091 49.9964 12.1543 49.9964L37.8448 50Z" fill="url(#paint35_linear_137_709)"/>
<path d="M37.8448 50C38.9881 50 39.5723 48.6804 38.7112 47.9229C34.9255 44.5745 30.0486 42.7295 24.9995 42.7356C19.9503 42.7283 15.0728 44.572 11.286 47.9194C10.4285 48.6786 11.0091 49.9964 12.1543 49.9964L37.8448 50Z" fill="url(#paint36_radial_137_709)"/>
<path d="M37.8448 50C38.9881 50 39.5723 48.6804 38.7112 47.9229C34.9255 44.5745 30.0486 42.7295 24.9995 42.7356C19.9503 42.7283 15.0728 44.572 11.286 47.9194C10.4285 48.6786 11.0091 49.9964 12.1543 49.9964L37.8448 50Z" fill="url(#paint37_linear_137_709)"/>
<path d="M37.8448 50C38.9881 50 39.5723 48.6804 38.7112 47.9229C34.9255 44.5745 30.0486 42.7295 24.9995 42.7356C19.9503 42.7283 15.0728 44.572 11.286 47.9194C10.4285 48.6786 11.0091 49.9964 12.1543 49.9964L37.8448 50Z" fill="url(#paint38_radial_137_709)"/>
<path d="M37.8448 50C38.9881 50 39.5723 48.6804 38.7112 47.9229C34.9255 44.5745 30.0486 42.7295 24.9995 42.7356C19.9503 42.7283 15.0728 44.572 11.286 47.9194C10.4285 48.6786 11.0091 49.9964 12.1543 49.9964L37.8448 50Z" fill="url(#paint39_radial_137_709)"/>
<g filter="url(#filter5_f_137_709)">
<path d="M25.7017 5.13359V35.7972" stroke="url(#paint40_linear_137_709)" stroke-width="0.4"/>
</g>
<path d="M24.9997 5.82653C26.6051 5.82653 27.9064 4.52222 27.9064 2.91326C27.9064 1.30431 26.6051 0 24.9997 0C23.3944 0 22.093 1.30431 22.093 2.91326C22.093 4.52222 23.3944 5.82653 24.9997 5.82653Z" fill="url(#paint41_radial_137_709)"/>
<path d="M24.9997 5.82653C26.6051 5.82653 27.9064 4.52222 27.9064 2.91326C27.9064 1.30431 26.6051 0 24.9997 0C23.3944 0 22.093 1.30431 22.093 2.91326C22.093 4.52222 23.3944 5.82653 24.9997 5.82653Z" fill="url(#paint42_radial_137_709)"/>
<path d="M24.9997 5.82653C26.6051 5.82653 27.9064 4.52222 27.9064 2.91326C27.9064 1.30431 26.6051 0 24.9997 0C23.3944 0 22.093 1.30431 22.093 2.91326C22.093 4.52222 23.3944 5.82653 24.9997 5.82653Z" fill="url(#paint43_radial_137_709)"/>
<defs>
<filter id="filter0_i_137_709" x="10.6807" y="7.57887" width="15.0898" height="9.2166" filterUnits="userSpaceOnUse" color-interpolation-filters="sRGB">
<feFlood flood-opacity="0" result="BackgroundImageFix"/>
<feBlend mode="normal" in="SourceGraphic" in2="BackgroundImageFix" result="shape"/>
<feColorMatrix in="SourceAlpha" type="matrix" values="0 0 0 0 0 0 0 0 0 0 0 0 0 0 0 0 0 0 127 0" result="hardAlpha"/>
<feOffset dx="-0.5" dy="-0.5"/>
<feGaussianBlur stdDeviation="0.5"/>
<feComposite in2="hardAlpha" operator="arithmetic" k2="-1" k3="1"/>
<feColorMatrix type="matrix" values="0 0 0 0 0.682353 0 0 0 0 0.588235 0 0 0 0 0.694118 0 0 0 1 0"/>
<feBlend mode="normal" in2="shape" result="effect1_innerShadow_137_709"/>
</filter>
<filter id="filter1_i_137_709" x="24.2576" y="7.57887" width="15.0916" height="9.2166" filterUnits="userSpaceOnUse" color-interpolation-filters="sRGB">
<feFlood flood-opacity="0" result="BackgroundImageFix"/>
<feBlend mode="normal" in="SourceGraphic" in2="BackgroundImageFix" result="shape"/>
<feColorMatrix in="SourceAlpha" type="matrix" values="0 0 0 0 0 0 0 0 0 0 0 0 0 0 0 0 0 0 127 0" result="hardAlpha"/>
<feOffset dx="0.5" dy="-0.5"/>
<feGaussianBlur stdDeviation="0.5"/>
<feComposite in2="hardAlpha" operator="arithmetic" k2="-1" k3="1"/>
<feColorMatrix type="matrix" values="0 0 0 0 0.682353 0 0 0 0 0.588235 0 0 0 0 0.694118 0 0 0 1 0"/>
<feBlend mode="normal" in2="shape" result="effect1_innerShadow_137_709"/>
</filter>
<filter id="filter2_f_137_709" x="29.0995" y="17.7222" width="10.309" height="15.7499" filterUnits="userSpaceOnUse" color-interpolation-filters="sRGB">
<feFlood flood-opacity="0" result="BackgroundImageFix"/>
<feBlend mode="normal" in="SourceGraphic" in2="BackgroundImageFix" result="shape"/>
<feGaussianBlur stdDeviation="0.2" result="effect1_foregroundBlur_137_709"/>
</filter>
<filter id="filter3_f_137_709" x="0.932764" y="17.7222" width="10.3073" height="15.7499" filterUnits="userSpaceOnUse" color-interpolation-filters="sRGB">
<feFlood flood-opacity="0" result="BackgroundImageFix"/>
<feBlend mode="normal" in="SourceGraphic" in2="BackgroundImageFix" result="shape"/>
<feGaussianBlur stdDeviation="0.2" result="effect1_foregroundBlur_137_709"/>
</filter>
<filter id="filter4_f_137_709" x="25.2145" y="8.19888" width="6.14155" height="8.02749" filterUnits="userSpaceOnUse" color-interpolation-filters="sRGB">
<feFlood flood-opacity="0" result="BackgroundImageFix"/>
<feBlend mode="normal" in="SourceGraphic" in2="BackgroundImageFix" result="shape"/>
<feGaussianBlur stdDeviation="0.2" result="effect1_foregroundBlur_137_709"/>
</filter>
<filter id="filter5_f_137_709" x="25.1017" y="4.73359" width="1.1999" height="31.4636" filterUnits="userSpaceOnUse" color-interpolation-filters="sRGB">
<feFlood flood-opacity="0" result="BackgroundImageFix"/>
<feBlend mode="normal" in="SourceGraphic" in2="BackgroundImageFix" result="shape"/>
<feGaussianBlur stdDeviation="0.2" result="effect1_foregroundBlur_137_709"/>
</filter>
<radialGradient id="paint0_radial_137_709" cx="0" cy="0" r="1" gradientUnits="userSpaceOnUse" gradientTransform="translate(12.9368 16.0955) scale(2.51233 4.42553)">
<stop offset="0.289" stop-color="#BDAAB9"/>
<stop offset="1" stop-color="#BDAAB9" stop-opacity="0"/>
</radialGradient>
<radialGradient id="paint1_radial_137_709" cx="0" cy="0" r="1" gradientUnits="userSpaceOnUse" gradientTransform="translate(15.1504 17.7249) rotate(-38.8929) scale(11.7638 9.11342)">
<stop offset="0.726" stop-color="#99839C" stop-opacity="0"/>
<stop offset="0.988" stop-color="#99839C"/>
</radialGradient>
<radialGradient id="paint2_radial_137_709" cx="0" cy="0" r="1" gradientUnits="userSpaceOnUse" gradientTransform="translate(37.0911 16.0955) rotate(180) scale(2.51233 4.42553)">
<stop offset="0.289" stop-color="#BDAAB9"/>
<stop offset="1" stop-color="#BDAAB9" stop-opacity="0"/>
</radialGradient>
<linearGradient id="paint3_linear_137_709" x1="-nan" y1="-nan" x2="-nan" y2="-nan" gradientUnits="userSpaceOnUse">
<stop offset="0.188" stop-color="#BBA1B3"/>
<stop offset="1" stop-color="#D7B7C8"/>
</linearGradient>
<linearGradient id="paint4_linear_137_709" x1="15.1789" y1="25.5962" x2="16.4922" y2="24.6661" gradientUnits="userSpaceOnUse">
<stop offset="0.175" stop-color="#D0B6C3"/>
<stop offset="1" stop-color="#E6D2E4"/>
</linearGradient>
<linearGradient id="paint5_linear_137_709" x1="14.8717" y1="25.7055" x2="15.2277" y2="25.4752" gradientUnits="userSpaceOnUse">
<stop stop-color="#C2A6B1"/>
<stop offset="1" stop-color="#C2A6B1" stop-opacity="0"/>
</linearGradient>
<linearGradient id="paint6_linear_137_709" x1="-nan" y1="-nan" x2="-nan" y2="-nan" gradientUnits="userSpaceOnUse">
<stop offset="0.188" stop-color="#BBA1B3"/>
<stop offset="1" stop-color="#D7B7C8"/>
</linearGradient>
<linearGradient id="paint7_linear_137_709" x1="32.991" y1="25.5962" x2="34.7248" y2="26.8406" gradientUnits="userSpaceOnUse">
<stop stop-color="#C1AFC0"/>
<stop offset="1" stop-color="#F6D6DE"/>
</linearGradient>
<linearGradient id="paint8_linear_137_709" x1="43.6262" y1="25.5962" x2="44.9395" y2="24.6661" gradientUnits="userSpaceOnUse">
<stop offset="0.175" stop-color="#D0B6C3"/>
<stop offset="1" stop-color="#E6D2E4"/>
</linearGradient>
<linearGradient id="paint9_linear_137_709" x1="43.3189" y1="25.7055" x2="43.6749" y2="25.4752" gradientUnits="userSpaceOnUse">
<stop stop-color="#C2A6B1"/>
<stop offset="1" stop-color="#C2A6B1" stop-opacity="0"/>
</linearGradient>
<radialGradient id="paint10_radial_137_709" cx="0" cy="0" r="1" gradientUnits="userSpaceOnUse" gradientTransform="translate(40.9018 14.5929) rotate(110.512) scale(4.67015 4.85322)">
<stop offset="0.319" stop-color="#FFC539"/>
<stop offset="1" stop-color="#F6973E"/>
</radialGradient>
<radialGradient id="paint11_radial_137_709" cx="0" cy="0" r="1" gradientUnits="userSpaceOnUse" gradientTransform="translate(42.1716 14.4546) rotate(134.418) scale(3.19508 3.44701)">
<stop stop-color="#FFF361"/>
<stop offset="1" stop-color="#FFF361" stop-opacity="0"/>
</radialGradient>
<radialGradient id="paint12_radial_137_709" cx="0" cy="0" r="1" gradientUnits="userSpaceOnUse" gradientTransform="translate(39.2651 19.3293) rotate(-90) scale(2.45497 2.11939)">
<stop stop-color="#E98856"/>
<stop offset="1" stop-color="#E98856" stop-opacity="0"/>
</radialGradient>
<radialGradient id="paint13_radial_137_709" cx="0" cy="0" r="1" gradientUnits="userSpaceOnUse" gradientTransform="translate(39.265 32.4971) rotate(90) scale(8.59954 15.9614)">
<stop offset="0.482" stop-color="#FFB85E"/>
<stop offset="1" stop-color="#FF9D5B"/>
</radialGradient>
<linearGradient id="paint14_linear_137_709" x1="39.265" y1="32.1569" x2="39.265" y2="34.2304" gradientUnits="userSpaceOnUse">
<stop stop-color="#FFCF4D"/>
<stop offset="1" stop-color="#FFCF4D" stop-opacity="0"/>
</linearGradient>
<radialGradient id="paint15_radial_137_709" cx="0" cy="0" r="1" gradientUnits="userSpaceOnUse" gradientTransform="translate(47.6457 31.1542) rotate(126.808) scale(9.78428 6.49265)">
<stop stop-color="#FFC635"/>
<stop offset="1" stop-color="#FFC635" stop-opacity="0"/>
</radialGradient>
<radialGradient id="paint16_radial_137_709" cx="0" cy="0" r="1" gradientUnits="userSpaceOnUse" gradientTransform="translate(39.265 33.0558) rotate(90) scale(8.03998 15.4589)">
<stop offset="0.592" stop-color="#FD9860" stop-opacity="0"/>
<stop offset="1" stop-color="#F18E9D"/>
</radialGradient>
<radialGradient id="paint17_radial_137_709" cx="0" cy="0" r="1" gradientUnits="userSpaceOnUse" gradientTransform="translate(36.9255 31.3209) rotate(52.7393) scale(12.7253 17.738)">
<stop offset="0.827" stop-color="#FFB651" stop-opacity="0"/>
<stop offset="1" stop-color="#E29471"/>
</radialGradient>
<radialGradient id="paint18_radial_137_709" cx="0" cy="0" r="1" gradientUnits="userSpaceOnUse" gradientTransform="translate(46.4166 33.0558) rotate(90) scale(2.0144 14.8729)">
<stop stop-color="#FFF263"/>
<stop offset="1" stop-color="#FFD049" stop-opacity="0"/>
</radialGradient>
<linearGradient id="paint19_linear_137_709" x1="4.5437" y1="25.5962" x2="6.27574" y2="26.8406" gradientUnits="userSpaceOnUse">
<stop stop-color="#C1AFC0"/>
<stop offset="1" stop-color="#F6D6DE"/>
</linearGradient>
<radialGradient id="paint20_radial_137_709" cx="0" cy="0" r="1" gradientUnits="userSpaceOnUse" gradientTransform="translate(10.7341 32.4971) rotate(90) scale(8.59954 15.9614)">
<stop offset="0.482" stop-color="#FFB85E"/>
<stop offset="1" stop-color="#FF9D5B"/>
</radialGradient>
<linearGradient id="paint21_linear_137_709" x1="10.7341" y1="32.1569" x2="10.7341" y2="34.2304" gradientUnits="userSpaceOnUse">
<stop stop-color="#FFCF4D"/>
<stop offset="1" stop-color="#FFCF4D" stop-opacity="0"/>
</linearGradient>
<radialGradient id="paint22_radial_137_709" cx="0" cy="0" r="1" gradientUnits="userSpaceOnUse" gradientTransform="translate(19.1148 31.1542) rotate(126.808) scale(9.78428 6.49265)">
<stop stop-color="#FFC635"/>
<stop offset="1" stop-color="#FFC635" stop-opacity="0"/>
</radialGradient>
<radialGradient id="paint23_radial_137_709" cx="0" cy="0" r="1" gradientUnits="userSpaceOnUse" gradientTransform="translate(17.8857 33.0558) rotate(90) scale(2.0144 14.873)">
<stop stop-color="#FFF263"/>
<stop offset="1" stop-color="#FFD049" stop-opacity="0"/>
</radialGradient>
<radialGradient id="paint24_radial_137_709" cx="0" cy="0" r="1" gradientUnits="userSpaceOnUse" gradientTransform="translate(10.7341 33.0558) rotate(90) scale(8.03998 15.4589)">
<stop offset="0.592" stop-color="#FD9860" stop-opacity="0"/>
<stop offset="1" stop-color="#F18E9D"/>
</radialGradient>
<radialGradient id="paint25_radial_137_709" cx="0" cy="0" r="1" gradientUnits="userSpaceOnUse" gradientTransform="translate(8.39483 31.321) rotate(52.7393) scale(12.7253 17.738)">
<stop offset="0.827" stop-color="#FFB651" stop-opacity="0"/>
<stop offset="1" stop-color="#E29471"/>
</radialGradient>
<radialGradient id="paint26_radial_137_709" cx="0" cy="0" r="1" gradientUnits="userSpaceOnUse" gradientTransform="translate(12.3708 14.5925) rotate(110.512) scale(4.67015 4.85322)">
<stop offset="0.319" stop-color="#FFC539"/>
<stop offset="1" stop-color="#F6973E"/>
</radialGradient>
<radialGradient id="paint27_radial_137_709" cx="0" cy="0" r="1" gradientUnits="userSpaceOnUse" gradientTransform="translate(13.6406 14.4539) rotate(134.418) scale(3.19508 3.44701)">
<stop stop-color="#FFF361"/>
<stop offset="1" stop-color="#FFF361" stop-opacity="0"/>
</radialGradient>
<radialGradient id="paint28_radial_137_709" cx="0" cy="0" r="1" gradientUnits="userSpaceOnUse" gradientTransform="translate(10.7343 19.3293) rotate(-90) scale(2.45497 2.11939)">
<stop stop-color="#E98856"/>
<stop offset="1" stop-color="#E98856" stop-opacity="0"/>
</radialGradient>
<linearGradient id="paint29_linear_137_709" x1="25.6465" y1="10.2385" x2="31.1277" y2="17.7902" gradientUnits="userSpaceOnUse">
<stop stop-color="#FDEBFF"/>
<stop offset="1" stop-color="#FDEBFF" stop-opacity="0"/>
</linearGradient>
<linearGradient id="paint30_linear_137_709" x1="-nan" y1="-nan" x2="-nan" y2="-nan" gradientUnits="userSpaceOnUse">
<stop stop-color="#C3AEC2"/>
<stop offset="1" stop-color="#E7D3E6"/>
</linearGradient>
<radialGradient id="paint31_radial_137_709" cx="0" cy="0" r="1" gradientUnits="userSpaceOnUse" gradientTransform="translate(-nan -nan) rotate(-nan) scale(-nan -nan)">
<stop stop-color="#B59CAD"/>
<stop offset="1" stop-color="#B59CAD" stop-opacity="0"/>
</radialGradient>
<linearGradient id="paint32_linear_137_709" x1="-nan" y1="-nan" x2="-nan" y2="-nan" gradientUnits="userSpaceOnUse">
<stop stop-color="#BC9EA3"/>
<stop offset="1" stop-color="#BC9EA3" stop-opacity="0"/>
</linearGradient>
<linearGradient id="paint33_linear_137_709" x1="-nan" y1="-nan" x2="-nan" y2="-nan" gradientUnits="userSpaceOnUse">
<stop stop-color="#A38B8F"/>
<stop offset="1" stop-color="#CBB6CA" stop-opacity="0"/>
</linearGradient>
<radialGradient id="paint34_radial_137_709" cx="0" cy="0" r="1" gradientUnits="userSpaceOnUse" gradientTransform="translate(-nan -nan) rotate(-nan) scale(-nan -nan)">
<stop offset="0.922" stop-color="#92767E" stop-opacity="0"/>
<stop offset="1" stop-color="#92767E"/>
</radialGradient>
<linearGradient id="paint35_linear_137_709" x1="24.9995" y1="42.7374" x2="24.9995" y2="49.5631" gradientUnits="userSpaceOnUse">
<stop offset="0.254" stop-color="#F9C63C"/>
<stop offset="0.754" stop-color="#FFCE37"/>
</linearGradient>
<radialGradient id="paint36_radial_137_709" cx="0" cy="0" r="1" gradientUnits="userSpaceOnUse" gradientTransform="translate(38.2646 49.6186) rotate(180) scale(13.2646 4.81217)">
<stop stop-color="#FFFF64"/>
<stop offset="1" stop-color="#FFFF64" stop-opacity="0"/>
</radialGradient>
<linearGradient id="paint37_linear_137_709" x1="27.992" y1="50" x2="27.992" y2="48.6678" gradientUnits="userSpaceOnUse">
<stop stop-color="#FA8694"/>
<stop offset="1" stop-color="#FFA166" stop-opacity="0"/>
</linearGradient>
<radialGradient id="paint38_radial_137_709" cx="0" cy="0" r="1" gradientUnits="userSpaceOnUse" gradientTransform="translate(23.8597 51.8013) rotate(-107.393) scale(10.0855 29.1095)">
<stop offset="0.57" stop-color="#EB9E40" stop-opacity="0"/>
<stop offset="1" stop-color="#EB9E40"/>
</radialGradient>
<radialGradient id="paint39_radial_137_709" cx="0" cy="0" r="1" gradientUnits="userSpaceOnUse" gradientTransform="translate(24.9995 48.9472) rotate(-89.9995) scale(6.71465 22.9789)">
<stop offset="0.685" stop-color="#DDB761" stop-opacity="0"/>
<stop offset="1" stop-color="#D29F5F"/>
</radialGradient>
<linearGradient id="paint40_linear_137_709" x1="-nan" y1="-nan" x2="-nan" y2="-nan" gradientUnits="userSpaceOnUse">
<stop stop-color="#EDD9EE"/>
<stop offset="1" stop-color="#EDD9EE" stop-opacity="0"/>
</linearGradient>
<radialGradient id="paint41_radial_137_709" cx="0" cy="0" r="1" gradientUnits="userSpaceOnUse" gradientTransform="translate(26.6358 1.4538) rotate(110.512) scale(4.67015 4.85322)">
<stop offset="0.319" stop-color="#FFC539"/>
<stop offset="1" stop-color="#F6973E"/>
</radialGradient>
<radialGradient id="paint42_radial_137_709" cx="0" cy="0" r="1" gradientUnits="userSpaceOnUse" gradientTransform="translate(27.9071 1.31456) rotate(134.418) scale(3.19508 3.44701)">
<stop stop-color="#FFF361"/>
<stop offset="1" stop-color="#FFF361" stop-opacity="0"/>
</radialGradient>
<radialGradient id="paint43_radial_137_709" cx="0" cy="0" r="1" gradientUnits="userSpaceOnUse" gradientTransform="translate(24.9997 6.19002) rotate(-90) scale(2.45497 2.11939)">
<stop stop-color="#E98856"/>
<stop offset="1" stop-color="#E98856" stop-opacity="0"/>
</radialGradient>
</defs>
</svg>
