<svg width="20" height="20" viewBox="0 0 20 20" fill="none" xmlns="http://www.w3.org/2000/svg">
<path d="M15.1595 19.2372C14.935 19.2372 14.7117 19.1683 14.5195 19.0311L10 15.79L5.48057 19.0311C5.29332 19.1658 5.06829 19.2379 4.83762 19.2371C4.60695 19.2363 4.38243 19.1627 4.19612 19.0267C4.00964 18.8914 3.87054 18.7009 3.79863 18.482C3.72671 18.2632 3.72564 18.0273 3.79557 17.8078L5.48112 12.3678L1.00223 9.21166C0.816613 9.07467 0.67876 8.88279 0.608174 8.66315C0.537588 8.44352 0.537842 8.20725 0.608901 7.98777C0.68052 7.76882 0.819138 7.57792 1.00516 7.44204C1.19119 7.30616 1.41521 7.23218 1.64557 7.23055L7.19279 7.22221L8.9589 1.91721C9.03179 1.69867 9.17158 1.5086 9.35848 1.37391C9.54538 1.23922 9.76991 1.16675 10.0003 1.16675C10.2307 1.16675 10.4552 1.23922 10.6421 1.37391C10.829 1.5086 10.9688 1.69867 11.0417 1.91721L12.7778 7.22221L18.3533 7.23055C18.584 7.23185 18.8083 7.30579 18.9945 7.44188C19.1808 7.57796 19.3194 7.76926 19.3906 7.9886C19.4619 8.20795 19.4623 8.44418 19.3917 8.66373C19.321 8.88329 19.183 9.07501 18.9972 9.21166L14.5183 12.3678L16.2039 17.8078C16.274 18.0272 16.273 18.2631 16.2012 18.482C16.1294 18.7008 15.9904 18.8914 15.8039 19.0267C15.617 19.1637 15.3912 19.2375 15.1595 19.2372Z" fill="#FFAC33"/>
</svg>
