<svg width="30" height="30" viewBox="0 0 30 30" fill="none" xmlns="http://www.w3.org/2000/svg">
<g clip-path="url(#clip0_13_15)">
<path d="M4.05094 7.62249C4.83428 7.07499 6.01511 7.17999 6.71844 7.76083L5.91178 6.58833C5.26261 5.66249 5.49511 4.66083 6.42178 4.01083C7.34844 3.36333 9.97428 5.10416 9.97428 5.10416C9.31928 4.16916 9.44178 2.98416 10.3768 2.32833C10.8263 2.01423 11.3821 1.89143 11.9221 1.9869C12.4622 2.08237 12.9422 2.38831 13.2568 2.83749L21.9401 15.1042L20.8334 25.8333L11.5976 22.465L3.54178 10.5208C3.38469 10.2972 3.27324 10.0447 3.21381 9.77794C3.15438 9.51116 3.14813 9.23529 3.19542 8.96609C3.24271 8.6969 3.34262 8.43967 3.48942 8.20912C3.63621 7.97857 3.82703 7.77923 4.05094 7.62249Z" fill="#EF9645"/>
<path d="M2.24589 14.4467C2.24589 14.4467 1.30255 13.0717 2.67839 12.1292C4.05255 11.1867 4.99505 12.5608 4.99505 12.5608L9.37089 18.9425C9.52172 18.6908 9.68672 18.4425 9.87089 18.1975L3.79755 9.34167C3.79755 9.34167 2.85505 7.96751 4.23005 7.02501C5.60422 6.08251 6.54672 7.45667 6.54672 7.45667L12.2592 15.7875C12.4717 15.6142 12.6892 15.44 12.9134 15.2692L6.29089 5.61001C6.29089 5.61001 5.34839 4.23584 6.72339 3.29334C8.09755 2.35084 9.04005 3.72501 9.04005 3.72501L15.6626 13.3825C15.9059 13.2333 16.1467 13.1042 16.3884 12.9675L10.1984 3.94084C10.1984 3.94084 9.25589 2.56667 10.6301 1.62417C12.0042 0.681673 12.9467 2.05584 12.9467 2.05584L19.4917 11.6008L20.4867 13.0525C16.3634 15.8808 15.9709 21.2017 18.3267 24.6375C18.7976 25.325 19.4851 24.8542 19.4851 24.8542C16.6576 20.73 17.5209 16.0958 21.6451 13.2683L20.4292 7.18334C20.4292 7.18334 19.9751 5.58001 21.5776 5.12501C23.1809 4.67084 23.6359 6.27417 23.6359 6.27417L25.0401 10.4442C25.5967 12.0975 26.1892 13.745 26.9734 15.3033C29.1876 19.7033 27.8651 25.1717 23.6901 28.0358C19.1359 31.1583 12.9101 29.9975 9.78672 25.4442L2.24589 14.4467Z" fill="#FFDC5D"/>
<path d="M9.99993 26.7017C6.66659 26.7017 3.29826 23.3333 3.29826 20C3.29826 19.5392 2.96076 19.1667 2.49993 19.1667C2.03909 19.1667 1.63159 19.5392 1.63159 20C1.63159 25 4.99993 28.3683 9.99993 28.3683C10.4608 28.3683 10.8333 27.9608 10.8333 27.5C10.8333 27.0392 10.4608 26.7017 9.99993 26.7017Z" fill="#5DADEC"/>
<path d="M5.83333 28.3333C3.33333 28.3333 1.66667 26.6667 1.66667 24.1667C1.66667 23.9456 1.57887 23.7337 1.42259 23.5774C1.26631 23.4211 1.05435 23.3333 0.833333 23.3333C0.61232 23.3333 0.400358 23.4211 0.244078 23.5774C0.0877974 23.7337 0 23.9456 0 24.1667C0 27.5 2.5 30 5.83333 30C6.05435 30 6.26631 29.9122 6.42259 29.7559C6.57887 29.5996 6.66667 29.3877 6.66667 29.1667C6.66667 28.9456 6.57887 28.7337 6.42259 28.5774C6.26631 28.4211 6.05435 28.3333 5.83333 28.3333ZM20 1.66666C19.779 1.66666 19.567 1.75445 19.4107 1.91073C19.2545 2.06701 19.1667 2.27898 19.1667 2.49999C19.1667 2.721 19.2545 2.93297 19.4107 3.08925C19.567 3.24553 19.779 3.33332 20 3.33332C23.3333 3.33332 26.6667 6.32416 26.6667 9.99999C26.6667 10.221 26.7545 10.433 26.9107 10.5892C27.067 10.7455 27.279 10.8333 27.5 10.8333C27.721 10.8333 27.933 10.7455 28.0893 10.5892C28.2455 10.433 28.3333 10.221 28.3333 9.99999C28.3333 5.40499 25 1.66666 20 1.66666Z" fill="#5DADEC"/>
<path d="M24.1666 0.0350037C23.7066 0.0350037 23.3333 0.373337 23.3333 0.833337C23.3333 1.29334 23.7066 1.70167 24.1666 1.70167C26.6666 1.70167 28.2983 3.55584 28.2983 5.83334C28.2983 6.29334 28.7058 6.66667 29.1666 6.66667C29.6274 6.66667 29.9649 6.29334 29.9649 5.83334C29.9649 2.63584 27.4999 0.0350037 24.1666 0.0350037Z" fill="#5DADEC"/>
</g>
<defs>
<clipPath id="clip0_13_15">
<rect width="30" height="30" fill="white"/>
</clipPath>
</defs>
</svg>
